HIERARCHY
ROOT Hips
{
	OFFSET 0.000000 0.000000 0.000000 
	CHANNELS 6 Xposition Yposition Zposition Zrotation Yrotation Xrotation
	JOINT LHipJoint
	{
		OFFSET 0.000000 0.000000 0.000000 
		CHANNELS 3 Zrotation Yrotation Xrotation
		JOINT LeftUpLeg
		{
			OFFSET 1.656740 -1.802820 0.624770 
			CHANNELS 3 Zrotation Yrotation Xrotation
			JOINT LeftLeg
			{
				OFFSET 2.597200 -7.135760 0.000000 
				CHANNELS 3 Zrotation Yrotation Xrotation
				JOINT LeftFoot
				{
					OFFSET 2.492360 -6.847700 0.000000 
					CHANNELS 3 Zrotation Yrotation Xrotation
					JOINT LeftToeBase
					{
						OFFSET 0.197040 -0.541360 2.145810 
						CHANNELS 3 Zrotation Yrotation Xrotation
						End Site
						{
							OFFSET 0.000000 -0.000000 1.112490 
						}
					}
				}
			}
		}
	}
	JOINT RHipJoint
	{
		OFFSET 0.000000 0.000000 0.000000 
		CHANNELS 3 Zrotation Yrotation Xrotation
		JOINT RightUpLeg
		{
			OFFSET -1.610700 -1.802820 0.624760 
			CHANNELS 3 Zrotation Yrotation Xrotation
			JOINT RightLeg
			{
				OFFSET -2.595020 -7.129770 0.000000 
				CHANNELS 3 Zrotation Yrotation Xrotation
				JOINT RightFoot
				{
					OFFSET -2.467800 -6.780240 0.000000 
					CHANNELS 3 Zrotation Yrotation Xrotation
					JOINT RightToeBase
					{
						OFFSET -0.230240 -0.632580 2.133680 
						CHANNELS 3 Zrotation Yrotation Xrotation
						End Site
						{
							OFFSET -0.000000 -0.000000 1.115690 
						}
					}
				}
			}
		}
	}
	JOINT LowerBack
	{
		OFFSET 0.000000 0.000000 0.000000 
		CHANNELS 3 Zrotation Yrotation Xrotation
		JOINT Spine
		{
			OFFSET 0.019610 2.054500 -0.141120 
			CHANNELS 3 Zrotation Yrotation Xrotation
			JOINT Spine1
			{
				OFFSET 0.010210 2.064360 -0.059210 
				CHANNELS 3 Zrotation Yrotation Xrotation
				JOINT Neck
				{
					OFFSET 0.000000 0.000000 0.000000 
					CHANNELS 3 Zrotation Yrotation Xrotation
					JOINT Neck1
					{
						OFFSET 0.007130 1.567110 0.149680 
						CHANNELS 3 Zrotation Yrotation Xrotation
						JOINT Head
						{
							OFFSET 0.034290 1.560410 -0.100060 
							CHANNELS 3 Zrotation Yrotation Xrotation
							End Site
							{
								OFFSET 0.013050 1.625600 -0.052650 
							}
						}
					}
				}
				JOINT LeftShoulder
				{
					OFFSET 0.000000 0.000000 0.000000 
					CHANNELS 3 Zrotation Yrotation Xrotation
					JOINT LeftArm
					{
						OFFSET 3.542050 0.904360 -0.173640 
						CHANNELS 3 Zrotation Yrotation Xrotation
						JOINT LeftForeArm
						{
							OFFSET 4.865130 -0.000000 -0.000000 
							CHANNELS 3 Zrotation Yrotation Xrotation
							JOINT LeftHand
							{
								OFFSET 3.355540 -0.000000 0.000000 
								CHANNELS 3 Zrotation Yrotation Xrotation
								JOINT LeftFingerBase
								{
									OFFSET 0.000000 0.000000 0.000000 
									CHANNELS 3 Zrotation Yrotation Xrotation
									JOINT LeftHandIndex1
									{
										OFFSET 0.661170 -0.000000 0.000000 
										CHANNELS 3 Zrotation Yrotation Xrotation
										End Site
										{
											OFFSET 0.533060 -0.000000 0.000000 
										}
									}
								}
								JOINT LThumb
								{
									OFFSET 0.000000 0.000000 0.000000 
									CHANNELS 3 Zrotation Yrotation Xrotation
									End Site
									{
										OFFSET 0.541200 -0.000000 0.541200 
									}
								}
							}
						}
					}
				}
				JOINT RightShoulder
				{
					OFFSET 0.000000 0.000000 0.000000 
					CHANNELS 3 Zrotation Yrotation Xrotation
					JOINT RightArm
					{
						OFFSET -3.498020 0.759940 -0.326160 
						CHANNELS 3 Zrotation Yrotation Xrotation
						JOINT RightForeArm
						{
							OFFSET -5.026490 -0.000000 0.000000 
							CHANNELS 3 Zrotation Yrotation Xrotation
							JOINT RightHand
							{
								OFFSET -3.364310 -0.000000 0.000000 
								CHANNELS 3 Zrotation Yrotation Xrotation
								JOINT RightFingerBase
								{
									OFFSET 0.000000 0.000000 0.000000 
									CHANNELS 3 Zrotation Yrotation Xrotation
									JOINT RightHandIndex1
									{
										OFFSET -0.730410 -0.000000 0.000000 
										CHANNELS 3 Zrotation Yrotation Xrotation
										End Site
										{
											OFFSET -0.588870 -0.000000 0.000000 
										}
									}
								}
								JOINT RThumb
								{
									OFFSET 0.000000 0.000000 0.000000 
									CHANNELS 3 Zrotation Yrotation Xrotation
									End Site
									{
										OFFSET -0.597860 -0.000000 0.597860 
									}
								}
							}
						}
					}
				}
			}
		}
	}
}
MOTION
Frames: 6
Frame Time: 0.008333
0.000000 16.704800 0.000000 0.000000 0.000000 0.000000 0.000000 0.000000 0.000000 -21.000000 0.000000 0.000000 0.000000 0.000000 0.000000 0.000000 0.000000 0.000000 0.000000 0.000000 0.000000 0.000000 0.000000 0.000000 21.000000 0.000000 0.000000 0.000000 0.000000 0.000000 0.000000 0.000000 0.000000 0.000000 0.000000 0.000000 0.000000 0.000000 0.000000 0.000000 0.000000 0.000000 0.000000 0.000000 0.000000 0.000000 0.000000 -16.000000 0.000000 0.000000 21.000000 0.000000 0.000000 11.000000 0.000000 0.000000 0.000000 -8.000000 0.000000 0.000000 0.000000 0.000000 0.000000 0.000000 0.000000 0.000000 0.000000 0.000000 0.000000 0.000000 0.000000 0.000000 0.000000 0.000000 0.000000 0.000000 0.000000 0.000000 8.000000 0.000000 0.000000 0.000000 0.000000 0.000000 0.000000 0.000000 0.000000 0.000000 0.000000 0.000000 0.000000 0.000000 0.000000 0.000000 0.000000 0.000000 
0.000000 16.704800 0.000000 -3.009100 -9.821900 -2.489700 0.000000 0.000000 0.000000 -18.044600 -10.217500 -26.249800 1.401300 7.488100 21.169901 0.233000 8.582800 -15.932400 0.292900 -3.480000 -9.618100 0.000000 0.000000 0.000000 29.129299 -3.611000 15.899100 -0.372500 -3.920100 10.851900 -0.682500 6.272700 -14.743100 -0.052700 -1.480900 4.073200 6.357100 1.572700 7.865700 1.656800 2.552300 3.472600 -2.055300 1.319400 -0.599600 1.034400 4.067100 -12.490100 -6.407300 5.612500 1.617800 -1.927500 2.547400 2.972300 -0.000000 -0.000000 0.000000 -97.126297 11.993700 -11.075600 10.524100 -17.555099 -1.629500 -0.000000 0.000000 -12.631000 23.558300 21.117500 8.927700 -7.125000 0.000000 -0.000000 -5.275500 52.751202 -1.008500 -0.000000 -0.000000 0.000000 79.205597 20.433901 39.631302 -27.558399 38.706501 -9.846300 0.000000 -0.000000 -16.779800 -27.168400 16.644699 -8.363100 7.125000 -0.000000 -0.000000 0.433500 -11.405900 0.339200 
-0.007700 16.684000 0.000000 -2.832400 -10.008200 -2.697300 0.000000 0.000000 0.000000 -18.489500 -10.063300 -25.988501 1.406500 7.501500 21.209801 0.248000 8.691100 -16.251900 0.200300 -2.882100 -7.950800 0.000000 0.000000 0.000000 28.790001 -3.851500 16.904301 -0.353900 -3.822000 10.576500 -0.655900 6.198200 -14.453800 -0.012500 -0.722700 1.986000 6.093300 1.653700 7.446000 1.671700 2.585500 3.912500 -1.869100 1.359900 0.078500 1.036600 4.150800 -13.040300 -6.438000 5.717000 1.419500 -1.923500 2.592100 3.013200 -0.000000 -0.000000 0.000000 -97.336403 11.314500 -11.303400 10.482700 -17.491100 -1.617000 -0.000000 0.000000 -12.381100 23.597799 21.286200 9.011300 -7.125000 0.000000 -0.000000 -5.286700 52.936501 -1.034600 -0.000000 -0.000000 0.000000 79.149498 21.130100 39.332802 -27.399700 38.557701 -9.747200 0.000000 -0.000000 -16.503700 -26.504499 16.327299 -7.980300 7.125000 -0.000000 -0.000000 0.842400 -11.855900 0.651400 
-0.015700 16.674900 0.000000 -2.679100 -10.110400 -2.736800 0.000000 0.000000 0.000000 -18.918699 -9.896900 -25.937700 1.437500 7.580300 21.446400 0.237400 8.718000 -16.140499 0.232800 -3.105700 -8.573200 0.000000 0.000000 0.000000 28.442600 -4.048800 17.373100 -0.377700 -3.947100 10.927900 -0.647700 6.465700 -14.383200 -0.002400 -0.315400 0.866500 5.931600 1.749200 7.315200 1.615400 2.689100 3.968500 -1.837300 1.414500 0.211000 1.069500 4.141900 -13.118800 -6.252200 5.669800 1.081900 -1.869600 2.582000 2.902200 -0.000000 0.000000 0.000000 -97.320999 11.066600 -11.609600 10.330300 -17.254499 -1.571500 -0.000000 0.000000 -11.613400 23.438000 20.740101 8.728100 -7.125000 0.000000 -0.000000 -5.284600 52.330898 -0.955800 -0.000000 0.000000 0.000000 79.177803 21.287201 39.108501 -27.094101 38.268799 -9.557400 0.000000 -0.000000 -16.226200 -26.653200 16.452801 -8.090800 7.125000 -0.000000 -0.000000 0.755600 -11.695900 0.586800 
-0.024301 16.669600 0.000000 -2.430100 -10.191400 -2.652900 0.000000 0.000000 0.000000 -19.497700 -9.509100 -26.102699 1.506900 7.753200 21.966801 0.215300 8.493400 -15.590600 0.347800 -3.789100 -10.484100 0.000000 0.000000 0.000000 28.005199 -4.158500 17.868601 -0.386900 -3.994300 11.060500 -0.612200 6.540100 -14.001400 -0.000400 -0.135600 0.372600 5.743700 1.823700 7.193600 1.449700 2.774200 3.818900 -1.908000 1.451500 0.127600 1.318800 4.129900 -12.917800 -6.090700 5.585200 0.706100 -1.869400 2.558900 2.734400 0.000000 0.000000 0.000000 -97.168602 11.065700 -11.789100 10.212700 -17.071699 -1.536800 -0.000000 0.000000 -11.113700 23.414499 20.074301 8.454300 -7.125000 0.000000 -0.000000 -5.115900 51.623199 -0.836300 0.000000 0.000000 0.000000 79.402298 21.128000 39.103600 -26.805300 37.992901 -9.379000 0.000000 -0.000000 -16.082701 -27.044201 16.653700 -8.323400 7.125000 -0.000000 -0.000000 0.516400 -11.415400 0.404000 
-0.035300 16.648800 0.000000 -2.468900 -10.352600 -2.507600 0.000000 0.000000 0.000000 -19.677099 -9.294900 -26.188601 1.622800 8.031700 22.810400 0.209600 8.183600 -15.168300 0.395900 -4.040200 -11.189800 0.000000 0.000000 0.000000 27.872200 -4.294500 18.149000 -0.420900 -4.164000 11.538600 -0.573700 6.700800 -13.589000 -0.001000 0.204400 -0.561600 5.719000 1.857100 6.930800 1.407000 2.803400 3.706000 -1.932300 1.465200 0.158900 1.546000 4.173800 -12.709500 -5.989800 5.587400 0.389000 -1.879700 2.574400 2.591500 -0.000000 -0.000000 0.000000 -97.138298 11.070400 -11.717800 10.206000 -17.061199 -1.534800 -0.000000 0.000000 -11.374700 23.342300 20.013500 8.401400 -7.125000 0.000000 -0.000000 -5.171200 51.546299 -0.835600 -0.000000 -0.000000 0.000000 79.659798 20.955200 39.337200 -26.587601 37.783100 -9.245300 0.000000 -0.000000 -16.002501 -27.229500 16.498600 -8.314100 7.125000 -0.000000 -0.000000 0.378600 -11.557200 0.295000 
